<?xml version="1.0" standalone="no"?>
<svg xmlns="http://www.w3.org/2000/svg" viewBox="0 0 120 66" width="120" height="66"><g fill="#305699" color="#305699" transform="translate(42.02 0) scale(0.35) "><svg width="100.0" height="100.0" x="0.0" y="0.0" viewBox="0 0 100 100"><path d="M90.75,56.589l-10.629-32.47l5.211-5.637V9.004l-9.478-3.755l-7.927,6.348l-18.063,2.951l-17.716-2.921l-8.163-6.377  l-9.478,3.04v10.193l5.172,5.859L9.236,56.603L8.353,59.33l2.182,1.86l36.598,31.194l2.779,2.366l2.782-2.361l36.754-31.193  l2.199-1.866L90.75,56.589z M49.917,86.078L13.319,57.924l13.303-41.092l23.242-0.405l23.353,0.401L86.67,57.924L49.917,86.078z"></path><polygon points="40.67,39.494 38.345,43.606 32.4,44.429 29.359,41.058 28.957,36.677 "></polygon><polygon points="58.771,39.494 61.096,43.606 67.15,44.429 70.082,41.058 70.484,36.677 "></polygon><g><polygon points="49.92,77.195 37.239,69.227 39.521,57.949 40.67,39.494 40.67,39.494 40.938,58.108 38.826,68.592 49.925,74.611    61.148,68.595 58.883,58.243 58.771,39.494 58.771,39.494 60.297,58.059 62.753,69.227  "></polygon></g><polygon points="53.471,61.875 55.664,67.748 49.922,70.923 44.171,67.748 46.364,61.875 "></polygon></svg></g><line x1="43.06953125" y1="41" x2="75.96953124999999" y2="41" stroke="#0b005d" stroke-linecap="round"></line><path fill="#0b005d" fill-rule="nonzero" d="M1.91 1.23L7.49 1.23Q10.28 1.23 11.77 2.47Q13.25 3.70 13.25 5.98L13.25 5.98Q13.25 7.22 12.56 8.18Q11.87 9.14 10.58 9.69L10.58 9.69Q11.98 10.15 12.59 11.18Q13.21 12.21 13.21 13.72L13.21 13.72L13.21 15.09Q13.21 15.88 13.41 16.25Q13.61 16.63 14.06 16.70L14.06 16.70L14.63 16.77L14.63 18.28L13.38 18.28Q12.04 18.28 11.47 17.34Q10.90 16.41 10.90 15.07L10.90 15.07L10.90 13.75Q10.90 12.35 10.09 11.51Q9.28 10.66 7.92 10.66L7.92 10.66L4.22 10.66L4.22 16.48L6.13 16.80L6.13 18.28L0 18.28L0 16.80L1.91 16.48L1.91 3.04L0 2.71L0 1.23L1.91 1.23ZM4.22 3.04L4.22 8.85L7.25 8.85Q9.19 8.85 10.07 8.11Q10.95 7.37 10.95 5.95L10.95 5.95Q10.95 4.61 10.10 3.82Q9.26 3.04 7.49 3.04L7.49 3.04L4.22 3.04ZM16.46 12.08L16.46 11.82Q16.46 9.01 17.99 7.19Q19.51 5.37 22.13 5.37L22.13 5.37Q24.75 5.37 26.28 7.18Q27.81 9 27.81 11.82L27.81 11.82L27.81 12.08Q27.81 14.92 26.29 16.72Q24.76 18.53 22.15 18.53L22.15 18.53Q19.51 18.53 17.99 16.72Q16.46 14.91 16.46 12.08L16.46 12.08ZM18.77 11.82L18.77 12.08Q18.77 14.10 19.62 15.41Q20.47 16.72 22.15 16.72L22.15 16.72Q23.79 16.72 24.64 15.41Q25.50 14.10 25.50 12.08L25.50 12.08L25.50 11.82Q25.50 9.83 24.64 8.51Q23.79 7.18 22.13 7.18L22.13 7.18Q20.46 7.18 19.62 8.51Q18.77 9.83 18.77 11.82L18.77 11.82ZM38.65 18.28L38.46 16.77Q37.84 17.64 36.94 18.08Q36.05 18.53 34.86 18.53L34.86 18.53Q32.54 18.53 31.24 16.85Q29.93 15.16 29.93 12.42L29.93 12.42L29.93 12.18Q29.93 9.12 31.24 7.24Q32.54 5.37 34.89 5.37L34.89 5.37Q36.01 5.37 36.87 5.78Q37.73 6.20 38.34 6.98L38.34 6.98L38.34 1.82L36.43 1.49L36.43 0L38.34 0L40.65 0L40.65 16.48L42.56 16.80L42.56 18.28L38.65 18.28ZM32.24 12.18L32.24 12.42Q32.24 14.33 33.02 15.49Q33.81 16.65 35.45 16.65L35.45 16.65Q36.48 16.65 37.18 16.18Q37.89 15.71 38.34 14.86L38.34 14.86L38.34 8.98Q37.90 8.18 37.18 7.71Q36.47 7.24 35.47 7.24L35.47 7.24Q33.82 7.24 33.03 8.61Q32.24 9.98 32.24 12.18L32.24 12.18ZM46.02 3.04L44.11 2.71L44.11 1.22L50.24 1.22L50.24 2.71L48.33 3.04L48.33 8.93L56.60 8.93L56.60 3.04L54.69 2.71L54.69 1.22L56.60 1.22L58.91 1.22L60.82 1.22L60.82 2.71L58.91 3.04L58.91 16.48L60.82 16.80L60.82 18.28L54.69 18.28L54.69 16.80L56.60 16.48L56.60 10.75L48.33 10.75L48.33 16.48L50.24 16.80L50.24 18.28L44.11 18.28L44.11 16.80L46.02 16.48L46.02 3.04ZM68.54 18.53L68.54 18.53Q65.89 18.53 64.33 16.76Q62.77 15 62.77 12.19L62.77 12.19L62.77 11.67Q62.77 8.96 64.38 7.17Q65.99 5.37 68.19 5.37L68.19 5.37Q70.75 5.37 72.06 6.91Q73.38 8.46 73.38 11.04L73.38 11.04L73.38 12.48L65.16 12.48L65.12 12.54Q65.16 14.37 66.05 15.54Q66.94 16.72 68.54 16.72L68.54 16.72Q69.71 16.72 70.60 16.39Q71.48 16.05 72.13 15.47L72.13 15.47L73.03 16.97Q72.35 17.63 71.23 18.08Q70.11 18.53 68.54 18.53ZM68.19 7.18L68.19 7.18Q67.03 7.18 66.21 8.16Q65.39 9.14 65.20 10.62L65.20 10.62L65.23 10.68L71.07 10.68L71.07 10.37Q71.07 9.01 70.35 8.10Q69.62 7.18 68.19 7.18ZM86.95 18.28L83.93 18.28Q83.82 17.77 83.77 17.36Q83.71 16.95 83.68 16.54L83.68 16.54Q83.02 17.39 82.01 17.96Q81.01 18.53 79.88 18.53L79.88 18.53Q77.89 18.53 76.86 17.56Q75.83 16.59 75.83 14.84L75.83 14.84Q75.83 13.03 77.29 12.05Q78.75 11.07 81.29 11.07L81.29 11.07L83.67 11.07L83.67 9.60Q83.67 8.48 82.97 7.83Q82.27 7.18 81.01 7.18L81.01 7.18Q80.14 7.18 79.48 7.41Q78.82 7.63 78.41 8.02L78.41 8.02L78.16 9.35L76.38 9.35L76.38 6.89Q77.25 6.20 78.48 5.78Q79.71 5.37 81.15 5.37L81.15 5.37Q83.31 5.37 84.64 6.47Q85.98 7.57 85.98 9.62L85.98 9.62L85.98 15.73Q85.98 15.97 85.99 16.21Q85.99 16.44 86.02 16.68L86.02 16.68L86.95 16.80L86.95 18.28ZM80.21 16.59L80.21 16.59Q81.36 16.59 82.31 16.04Q83.26 15.49 83.67 14.72L83.67 14.72L83.67 12.63L81.21 12.63Q79.79 12.63 78.97 13.29Q78.14 13.95 78.14 14.88L78.14 14.88Q78.14 15.71 78.66 16.15Q79.17 16.59 80.21 16.59ZM90.47 1.82L88.56 1.49L88.56 0L92.78 0L92.78 16.48L94.69 16.80L94.69 18.28L88.56 18.28L88.56 16.80L90.47 16.48L90.47 1.82ZM98.16 2.54L100.46 2.54L100.46 5.60L102.87 5.60L102.87 7.31L100.46 7.31L100.46 15.01Q100.46 15.90 100.83 16.27Q101.20 16.63 101.81 16.63L101.81 16.63Q102.12 16.63 102.50 16.58Q102.88 16.52 103.14 16.46L103.14 16.46L103.45 18.05Q103.13 18.26 102.49 18.39Q101.86 18.53 101.23 18.53L101.23 18.53Q99.82 18.53 98.99 17.68Q98.16 16.83 98.16 15.01L98.16 15.01L98.16 7.31L96.15 7.31L96.15 5.60L98.16 5.60L98.16 2.54ZM104.91 18.28L104.91 16.80L106.82 16.48L106.82 1.82L104.91 1.49L104.91 0L109.13 0L109.13 7.29Q109.78 6.38 110.73 5.87Q111.68 5.37 112.84 5.37L112.84 5.37Q114.88 5.37 116.00 6.59Q117.13 7.80 117.13 10.34L117.13 10.34L117.13 16.48L119.04 16.80L119.04 18.28L112.91 18.28L112.91 16.80L114.82 16.48L114.82 10.31Q114.82 8.74 114.15 7.99Q113.47 7.24 112.14 7.24L112.14 7.24Q111.19 7.24 110.41 7.69Q109.63 8.14 109.13 8.92L109.13 8.92L109.13 16.48L111.04 16.80L111.04 18.28L104.91 18.28Z" transform="translate(0, 47)"></path></svg>